<?xml version="1.0" encoding="utf-8"?>
<!-- Generator: Adobe Illustrator 22.0.1, SVG Export Plug-In . SVG Version: 6.00 Build 0)  -->
<svg version="1.1" id="white_complete_englisch" xmlns="http://www.w3.org/2000/svg" xmlns:xlink="http://www.w3.org/1999/xlink"
	 x="0px" y="0px" viewBox="0 0 3623.3 1500" style="enable-background:new 0 0 3623.3 1500;" xml:space="preserve">
<style type="text/css">
	.st0{enable-background:new    ;}
	.st1{fill:#FFFFFF;}
	.st2{fill:none;stroke:#FFFFFF;stroke-width:7.5;stroke-miterlimit:10;}
</style>
<title>logo</title>
<g class="st0">
	<path class="st1" d="M1456.2,604.2c-1.9-12.2-5.6-22.7-11.4-31.4c-5.7-8.7-12.9-15.8-21.4-21.4c-8.5-5.6-18-9.6-28.6-12.2
		c-10.5-2.6-21.6-3.9-33-3.9c-25.5,0-46.9,5.3-64.1,15.8c-17.2,10.5-31,24.2-41.3,41.1c-10.4,16.8-17.7,35.7-21.9,56.6
		c-4.3,20.9-6.4,41.5-6.4,61.9c0,20.7,2.1,41.4,6.4,62.2c4.2,20.7,11.6,39.5,21.9,56.3c10.4,16.8,24.1,30.5,41.3,41.1
		c17.2,10.5,38.6,15.8,64.1,15.8c11.1,0,22-1.4,32.7-4.2c10.7-2.8,20.5-7.1,29.4-13c8.9-5.9,16.6-13.4,23-22.5
		c6.5-9.1,11-19.9,13.6-32.5h38.8c-3,16.7-8.8,31.5-17.5,44.7c-8.7,13.1-19.2,24.2-31.6,33.3c-12.4,9.1-26.3,15.9-41.6,20.5
		c-15.4,4.6-31,6.9-46.9,6.9c-30.3,0-56.4-5.6-78.3-16.9c-21.8-11.3-39.7-26.5-53.6-45.8c-13.9-19.2-24.1-41.4-30.8-66.6
		c-6.7-25.2-10-51.6-10-79.4c0-27.4,3.3-53.6,10-78.8c6.7-25.2,17-47.4,31.1-66.6c14.1-19.2,31.9-34.6,53.6-46.1
		c21.6-11.5,47.6-17.2,78-17.2c16.3,0,32.1,1.9,47.5,5.8c15.3,3.9,29.1,10,41.3,18.3s22.3,18.9,30.2,31.6
		c8,12.8,12.7,28.2,14.2,46.3H1456.2z"/>
	<path class="st1" d="M1903.5,710.8c0,31.1-3.9,59.5-11.7,85.2c-7.8,25.7-19.2,47.7-34.4,66c-15.2,18.3-33.9,32.5-56.1,42.5
		c-22.2,10-47.7,15-76.6,15c-28.9,0-54.4-5-76.6-15c-22.2-10-40.9-24.1-56.1-42.5c-15.2-18.3-26.6-40.3-34.4-66
		c-7.8-25.7-11.7-54.1-11.7-85.2c0-31.1,3.9-59.5,11.7-85.2c7.8-25.7,19.2-47.7,34.4-66c15.2-18.3,33.9-32.5,56.1-42.5
		c22.2-10,47.7-15,76.6-15c28.9,0,54.4,5,76.6,15c22.2,10,40.9,24.1,56.1,42.5c15.2,18.3,26.6,40.3,34.4,66
		C1899.7,651.3,1903.5,679.7,1903.5,710.8z M1585,710.8c0,21.8,2.6,43.3,7.8,64.4c5.2,21.1,13.4,39.9,24.7,56.3
		c11.3,16.5,25.7,29.7,43.3,39.7c17.6,10,38.9,15,64.1,15c24.8,0,46.1-5,63.8-15c17.8-10,32.3-23.2,43.6-39.7
		c11.3-16.5,19.5-35.2,24.7-56.3c5.2-21.1,7.8-42.5,7.8-64.4c0-21.8-2.6-43.3-7.8-64.4c-5.2-21.1-13.4-39.9-24.7-56.3
		c-11.3-16.5-25.8-29.7-43.6-39.7c-17.8-10-39-15-63.8-15c-25.2,0-46.5,5-64.1,15c-17.6,10-32,23.2-43.3,39.7
		c-11.3,16.5-19.5,35.2-24.7,56.3C1587.6,667.5,1585,689,1585,710.8z"/>
	<path class="st1" d="M1979.6,911.1V510.4h36.1v367.4h201.5v33.3H1979.6z"/>
	<path class="st1" d="M2221,911.1l158.7-400.7h42.2l159.8,400.7h-39.4l-42.7-108.2h-199.2l-42.2,108.2H2221z M2486.9,769.6
		l-86.6-225.9L2312,769.6H2486.9z"/>
	<path class="st1" d="M2625,911.1V510.4h143.7c14.8,0,28.9,2.2,42.5,6.7c13.5,4.5,25.3,11,35.5,19.5c10.2,8.5,18.3,19,24.4,31.4
		c6.1,12.4,9.2,26.6,9.2,42.6c0,11.1-1.9,21.6-5.8,31.5s-9.2,18.7-15.8,26.7c-6.7,8-14.5,14.8-23.6,20.3
		c-9.1,5.6-18.8,9.6-29.1,12.2v1.1c27.4,4.4,49.4,15.3,66,32.5c16.7,17.2,25,40.2,25,69.1c0,13.3-2.1,26.4-6.4,39.1
		c-4.3,12.8-11.1,24.1-20.5,34.1c-9.4,10-21.7,18.1-36.9,24.4c-15.2,6.3-33.7,9.4-55.5,9.4H2625z M2748.3,686.9
		c11.5,0,22.8-1.2,34.1-3.6c11.3-2.4,21.3-6.5,30-12.2c8.7-5.7,15.7-13.2,21.1-22.5c5.4-9.2,8-20.7,8-34.4c0-14.4-2.8-26.3-8.3-35.5
		c-5.5-9.2-12.8-16.4-21.6-21.4c-8.9-5-19-8.5-30.2-10.5c-11.3-2-22.9-3.1-34.7-3.1h-85.5v143.2H2748.3z M2661.1,877.9h88.2
		c17,0.4,32.3-0.6,45.8-3.1c13.5-2.4,25-6.7,34.4-12.8c9.4-6.1,16.6-14.2,21.4-24.4c4.8-10.2,7.2-23,7.2-38.6
		c0-17-3.2-30.7-9.7-41.1c-6.5-10.4-15.5-18.3-27.2-23.9s-25.4-9.2-41.3-11.1c-15.9-1.8-33.3-2.8-52.2-2.8h-66.6V877.9z"/>
	<path class="st1" d="M2982.5,911.1V508.8h36.1v402.4H2982.5z"/>
	<path class="st1" d="M3367.6,805.7c0,21.8-4.4,40.1-13,54.7c-8.7,14.6-20.3,26.3-34.7,35c-14.4,8.7-31,14.9-49.7,18.6
		c-18.7,3.7-38,5.6-58,5.6c-15.9,0-31-2.8-45.2-8.3c-14.2-5.5-26.8-13.3-37.7-23.3c-10.9-10-19.6-21.8-26.1-35.5
		c-6.5-13.7-9.9-28.9-10.3-45.5h38.8c0.4,15.5,3.2,28.4,8.6,38.6c5.4,10.2,12.7,18.3,21.9,24.4c9.2,6.1,19.9,10.4,31.9,12.8
		c12,2.4,24.7,3.6,38,3.6c11.1,0,22.4-1.7,33.9-5c11.5-3.3,21.8-8.1,31.1-14.4c9.2-6.3,16.8-14.2,22.8-23.9
		c5.9-9.6,8.9-20.9,8.9-33.9c0-10-1.7-18.7-5-26.1c-3.3-7.4-7.9-13.9-13.6-19.4c-5.7-5.6-12.4-10.3-20-14.2
		c-7.6-3.9-15.6-7.3-24.1-10.3c-16.3-5.5-34-11.3-53-17.2c-19.1-5.9-36.8-13.5-53.3-22.8c-16.5-9.2-30.2-20.9-41.1-35
		c-10.9-14.1-16.4-32-16.4-53.8c0-17.4,3.7-32.8,11.1-46.3c7.4-13.5,17.1-24.8,29.1-33.9c12-9.1,25.6-16,40.8-20.8
		c15.2-4.8,30.7-7.2,46.6-7.2c13.3,0,27.1,1.4,41.3,4.2c14.2,2.8,27.7,7.7,40.2,14.7c12.6,7,23.3,16.7,32.2,29.1
		c8.9,12.4,14.4,28.2,16.7,47.5h-38.9c-0.4-12.2-3.1-22.4-8.3-30.5c-5.2-8.1-11.9-14.5-20.3-19.1c-8.3-4.6-17.6-7.9-27.8-9.7
		c-10.2-1.8-20.4-2.8-30.8-2.8c-10.4,0-21.1,1.4-32.2,4.2c-11.1,2.8-21.2,6.9-30.2,12.5c-9.1,5.5-16.5,12.8-22.2,21.6
		c-5.7,8.9-8.6,19.4-8.6,31.6c0,18.9,5.6,33.8,16.7,44.7c11.1,10.9,25.1,20,41.9,27.2c16.8,7.2,35.1,13.6,54.7,19.1
		c19.6,5.5,37.8,12.6,54.7,21.1c16.8,8.5,30.8,19.6,41.9,33.3C3362.1,764.4,3367.6,782.8,3367.6,805.7z"/>
</g>
<line class="st2" x1="831" y1="834.1" x2="1486.4" y2="223.8"/>
<line class="st2" x1="1486.4" y1="223.8" x2="2243.1" y2="487.7"/>
<path class="st1" d="M1439,1276.2c0,26.2-21.2,47.4-47.4,47.4s-47.4-21.2-47.4-47.4s21.2-47.4,47.4-47.4S1439,1250.1,1439,1276.2
	L1439,1276.2z"/>
<path class="st1" d="M1533.8,223.8c0,26.2-21.2,47.4-47.4,47.4s-47.4-21.2-47.4-47.4s21.2-47.4,47.4-47.4S1533.8,197.6,1533.8,223.8
	L1533.8,223.8z"/>
<circle class="st1" cx="2243.1" cy="487.7" r="47.4"/>
<line class="st2" x1="831" y1="834.1" x2="1391.7" y2="1276.2"/>
<line class="st2" x1="831" y1="834.1" x2="364.8" y2="355.8"/>
<line class="st2" x1="938.7" y1="510.8" x2="787.9" y2="268.8"/>
<path class="st1" d="M831,271.2c0,26.2-21.2,47.4-47.4,47.4s-47.4-21.2-47.4-47.4s21.2-47.4,47.4-47.4S831,245,831,271.2L831,271.2z
	"/>
<circle class="st1" cx="671.8" cy="1158.8" r="47.4"/>
<circle class="st1" cx="364.8" cy="355.8" r="47.4"/>
<line class="st2" x1="831" y1="834.1" x2="671.8" y2="1158.8"/>
<line class="st2" x1="783.6" y1="271.2" x2="305.9" y2="712.1"/>
<path class="st1" d="M1059.8,358c-13.7,5.9-16.1,17.3-13.8,34.1c6,27.8,21.8,18,3.6,91.1c-16.1,64.8-31.3,99-61.3,111.8
	c-72.4,30.9-113,0.8-183.7-20.5c-109.4-33-133.2-107.2-166.3-134.1s-70.5-33.3-108-17.3c-48.1,20.5-59.4,64.2-58.6,122.4
	c0.2,29.2-1.5,144.3-39.8,221.9c-43.7,88.5-224.5,170-259.8,242.1c-46.6,89.3-11.9,199.4,77.4,246c48.4,25.3,105.6,27.5,155.8,6
	c90.5-38.6,133.7-141.9,98.6-233c-11-40.3-30-136-0.4-240.7c25.8-91.3,158.8-226.4,307.4-190.8c100,24,133.4,48,150,64.1
	c3.2,4.6,30,32.5,63.5,18.2c17-7.2,29.9-16.8,35.9-36.1s-14.8-89.4-2.6-156.9c15.4-84.6,22.4-65.3,35.6-86.3
	c5.8-10.3,6.1-18.5,2.2-27.8C1089.5,358.5,1073.6,352.1,1059.8,358z"/>
<path class="st1" d="M918.1,796.9c20.5,48.1-1.9,103.8-50,124.3c-48.1,20.5-103.8-1.9-124.3-50c-20.5-48.1,1.9-103.7,50-124.3
	C841.9,726.4,897.6,748.8,918.1,796.9C918.1,796.9,918.1,796.9,918.1,796.9z"/>
<path class="st1" d="M360.1,689c12.8,30-1.1,64.6-31.1,77.4c-30,12.8-64.6-1.1-77.4-31.1c-12.8-30,1.1-64.6,31.1-77.4
	c0,0,0.1,0,0.1,0C312.7,645.2,347.3,659.1,360.1,689z"/>
<path class="st1" d="M969.7,497.5c7.3,17.1-0.6,36.9-17.8,44.2c-17.1,7.3-36.9-0.6-44.2-17.8s0.6-36.9,17.8-44.2c0,0,0,0,0,0
	C942.6,472.5,962.4,480.4,969.7,497.5C969.7,497.5,969.7,497.5,969.7,497.5z"/>
<g>
	<path d="M-1370.1,90.3h1v7.2h3.5v0.9h-4.5V90.3z"/>
	<path d="M-1359.4,95.4c0,2.1-1.5,3.1-2.9,3.1c-1.6,0-2.8-1.2-2.8-3c0-1.9,1.3-3.1,2.9-3.1C-1360.5,92.4-1359.4,93.7-1359.4,95.4z
		 M-1364,95.5c0,1.3,0.7,2.2,1.8,2.2c1,0,1.8-0.9,1.8-2.3c0-1-0.5-2.2-1.7-2.2C-1363.4,93.2-1364,94.4-1364,95.5z"/>
	<path d="M-1358,94.4c0-0.7,0-1.3,0-1.8h0.9l0,1.1h0c0.3-0.8,0.9-1.3,1.6-1.3c0.1,0,0.2,0,0.3,0v1c-0.1,0-0.2,0-0.4,0
		c-0.7,0-1.3,0.6-1.4,1.4c0,0.1,0,0.3,0,0.5v3.1h-1V94.4z"/>
	<path d="M-1353.7,95.7c0,1.4,0.9,2,2,2c0.8,0,1.2-0.1,1.6-0.3l0.2,0.8c-0.4,0.2-1,0.4-1.9,0.4c-1.8,0-2.9-1.2-2.9-2.9
		c0-1.8,1-3.1,2.7-3.1c1.9,0,2.4,1.7,2.4,2.7c0,0.2,0,0.4,0,0.5H-1353.7z M-1350.6,94.9c0-0.7-0.3-1.7-1.5-1.7c-1.1,0-1.5,1-1.6,1.7
		H-1350.6z"/>
	<path d="M-1348.2,94.1c0-0.6,0-1.1,0-1.6h0.9l0,0.9h0c0.3-0.6,0.9-1.1,1.8-1.1c0.8,0,1.4,0.5,1.6,1.2h0c0.2-0.3,0.4-0.6,0.6-0.8
		c0.3-0.3,0.7-0.4,1.3-0.4c0.8,0,1.9,0.5,1.9,2.5v3.4h-1v-3.3c0-1.1-0.4-1.8-1.3-1.8c-0.6,0-1.1,0.4-1.2,1c0,0.1-0.1,0.3-0.1,0.5
		v3.6h-1v-3.5c0-0.9-0.4-1.6-1.2-1.6c-0.7,0-1.1,0.5-1.3,1.1c-0.1,0.2-0.1,0.3-0.1,0.5v3.5h-1V94.1z"/>
	<path d="M-1334.5,90.9c0,0.4-0.3,0.6-0.7,0.6c-0.4,0-0.6-0.3-0.6-0.6c0-0.4,0.3-0.7,0.7-0.7C-1334.8,90.3-1334.5,90.6-1334.5,90.9z
		 M-1335.7,98.4v-5.8h1.1v5.8H-1335.7z"/>
	<path d="M-1332.9,94.5c0-0.7,0-1.3,0-1.9h0.9l0,1h0c0.4-0.7,1.1-1.1,2.1-1.1c1.4,0,2.5,1.2,2.5,3c0,2.1-1.3,3.1-2.6,3.1
		c-0.8,0-1.4-0.3-1.8-0.9h0v3.2h-1V94.5z M-1331.8,96c0,0.2,0,0.3,0,0.4c0.2,0.7,0.8,1.2,1.6,1.2c1.1,0,1.8-0.9,1.8-2.2
		c0-1.2-0.6-2.2-1.7-2.2c-0.7,0-1.4,0.5-1.6,1.3c0,0.1-0.1,0.3-0.1,0.4V96z"/>
	<path d="M-1326.2,97.3c0.3,0.2,0.9,0.4,1.4,0.4c0.8,0,1.1-0.4,1.1-0.9c0-0.5-0.3-0.8-1.1-1.1c-1-0.4-1.5-0.9-1.5-1.6
		c0-0.9,0.8-1.7,2-1.7c0.6,0,1.1,0.2,1.4,0.4l-0.3,0.8c-0.2-0.1-0.6-0.3-1.2-0.3c-0.6,0-1,0.4-1,0.8c0,0.5,0.3,0.7,1.1,1
		c1,0.4,1.5,0.9,1.5,1.8c0,1-0.8,1.7-2.2,1.7c-0.6,0-1.2-0.2-1.6-0.4L-1326.2,97.3z"/>
	<path d="M-1316.4,96.8c0,0.6,0,1.1,0,1.6h-0.9l-0.1-0.9h0c-0.3,0.5-0.9,1.1-1.9,1.1c-0.9,0-2-0.5-2-2.5v-3.4h1.1v3.2
		c0,1.1,0.3,1.8,1.3,1.8c0.7,0,1.2-0.5,1.4-1c0.1-0.2,0.1-0.3,0.1-0.5v-3.6h1.1V96.8z"/>
	<path d="M-1314.7,94.1c0-0.6,0-1.1,0-1.6h0.9l0,0.9h0c0.3-0.6,0.9-1.1,1.8-1.1c0.8,0,1.4,0.5,1.6,1.2h0c0.2-0.3,0.4-0.6,0.6-0.8
		c0.3-0.3,0.7-0.4,1.3-0.4c0.8,0,1.9,0.5,1.9,2.5v3.4h-1v-3.3c0-1.1-0.4-1.8-1.3-1.8c-0.6,0-1.1,0.4-1.2,1c0,0.1-0.1,0.3-0.1,0.5
		v3.6h-1v-3.5c0-0.9-0.4-1.6-1.2-1.6c-0.7,0-1.1,0.5-1.3,1.1c-0.1,0.2-0.1,0.3-0.1,0.5v3.5h-1V94.1z"/>
</g>
</svg>
