<?xml version="1.0" encoding="UTF-8" standalone="no"?>
<!DOCTYPE svg PUBLIC "-//W3C//DTD SVG 1.1//EN" "http://www.w3.org/Graphics/SVG/1.1/DTD/svg11.dtd">
<svg width="100%" height="100%" viewBox="0 0 528 68" version="1.1" xmlns="http://www.w3.org/2000/svg" xmlns:xlink="http://www.w3.org/1999/xlink" xml:space="preserve" xmlns:serif="http://www.serif.com/" style="fill-rule:evenodd;clip-rule:evenodd;stroke-linejoin:round;stroke-miterlimit:2;">
    <g transform="matrix(1,0,0,1,-27.0819,-75.3417)">
        <path id="path7220" d="M102.034,106.517L102.034,118.376L115.061,118.376C112.276,122.419 107.335,125.024 102.034,125.024C93.769,125.024 86.132,118.286 86.132,109.033C86.132,99.779 93.589,93.041 102.034,93.041C106.616,93.041 110.389,94.837 113.264,97.533L125.752,85.135C119.643,79.115 111.288,75.342 102.034,75.342C83.437,75.342 68.433,90.435 68.433,109.033C68.433,127.63 83.437,142.723 102.034,142.723C120.631,142.723 135.725,127.63 135.725,109.033L135.725,106.517L102.034,106.517Z" style="fill:rgb(58,175,169);fill-rule:nonzero;"/>
        <path id="path7222" d="M145.401,142.723L187.268,142.723L187.268,128.259L163.1,128.259L163.1,115.861L184.482,115.861L184.482,100.947L163.1,100.947L163.1,89.986L187.268,89.986L187.268,75.342L145.401,75.342L145.401,142.723Z" style="fill:rgb(58,175,169);fill-rule:nonzero;"/>
        <path id="path7224" d="M232.226,75.342C213.629,75.342 198.626,90.525 198.626,109.122C198.626,127.72 213.629,142.723 232.226,142.723C250.824,142.723 265.917,127.72 265.917,109.122C265.917,90.525 250.824,75.342 232.226,75.342ZM232.226,92.951C237.742,92.951 242.6,95.715 245.495,99.935L245.248,99.95L244.146,99.248L243.274,99.792L241.81,99.659L239.158,99.925L238.36,100.434L237.391,99.804L237.076,99.453L233.88,99.526L231.592,101.148L232.186,101.657L232.851,101.426L233.699,101.995L234.292,101.414L234.038,100.93L234.582,100.785L234.849,100.216L235.587,100.301L235.466,101.064L235.406,101.487L234.558,102.383L233.493,102.456C233.493,102.456 232.658,102.105 232.597,102.093C232.537,102.081 232.101,102.589 232.101,102.589L230.588,103.364L230.599,104.126L229.074,104.429L229.134,105.494L230.514,105.483L231.604,104.284L233.528,104.938L233.722,105.567L234.303,105.229L232.85,104.091L233.468,103.97L235.078,105.64L235.344,104.756L235.937,105.713L237.717,105.687L237.342,106.728L234.279,106.934L232.293,105.845L229.751,106.063L227.875,108.229L228.601,111.304L229.667,111.45L232.427,111.074L232.935,111.377L233.068,115.142L234.545,118.931L236.216,118.544L236.809,117.623L237.886,114.355L239.811,111.183C239.811,111.183 238.31,110.36 238.165,110.239C238.019,110.118 237.56,108.339 237.56,108.339L239.581,109.852L241.373,108.811L239.968,107.6L241.131,107.225L244.109,108.145L244.69,109.392L245.622,111.135L246.433,108.968L248.261,108.229L248.286,108.232C248.301,108.498 248.306,108.764 248.306,109.033C248.306,117.837 241.119,125.115 232.225,125.115C227.339,125.115 222.951,122.873 220.013,119.373L221.64,117.284L223.02,116.787C223.02,116.787 223.867,114.766 223.903,114.693C223.94,114.62 224.097,113.628 224.097,113.628L221.482,112.841L220.901,111.667L219.122,110.722L217.148,110.371L216.323,110.727C216.264,110.169 216.233,109.605 216.233,109.033C216.233,108.967 216.235,108.9 216.235,108.834L216.507,108.882L216.64,108.653L216.243,108.482C216.281,107.362 216.432,106.271 216.687,105.221L216.749,105.105L217.693,104.282L218.916,103.98L218.819,103.399L220.49,103.459L220.332,102.793L218.698,101.413L218.599,100.617C218.997,99.967 219.441,99.346 219.924,98.762L220.962,100.965L222.1,101.111L223.008,100.215L225.066,99.658L226.24,98.689L227.1,96.886L225.15,96.184L223.22,95.747C225.788,93.983 228.89,92.951 232.225,92.951L232.226,92.951ZM226.472,100.094L226.92,100.699L227.803,100.639L227.778,100.142L226.472,100.094ZM230.128,101.413C230.128,101.413 229.498,101.522 229.547,101.607C229.595,101.691 229.643,101.958 229.643,101.958L230.283,102.321L229.861,102.95L229.97,103.108L231.06,102.865L230.128,101.413ZM229.365,102.188L228.832,102.418L228.905,102.89L229.268,103.035L229.634,102.635L229.365,102.188ZM217.029,108.948L217.09,109.209L217.889,109.173L217.914,108.955L217.029,108.948Z" style="fill:rgb(58,175,169);fill-rule:nonzero;"/>
        <path id="path7226" d="M323.515,75.342L320.999,75.342L282.367,113.704L282.367,75.342L280.66,75.342L280.66,142.723L282.367,142.723L282.367,116.4L291.171,107.595L326.389,142.723L329.085,142.723L292.609,106.158L323.515,75.342Z" style="fill:rgb(24,38,43);fill-rule:nonzero;"/>
        <path id="path7228" d="M340.698,116.13C340.698,130.864 352.557,142.723 367.292,142.723C382.026,142.723 393.975,130.864 393.975,116.13L393.975,75.342L392.178,75.342L392.178,116.22C392.088,129.876 380.858,140.837 367.292,140.837C353.636,140.837 342.495,129.786 342.495,116.13L342.495,75.342L340.698,75.342L340.698,116.13Z" style="fill:rgb(24,38,43);fill-rule:nonzero;"/>
        <path id="path7230" d="M446.643,142.723L448.709,142.723L432.807,115.142C443.678,114.962 452.483,106.158 452.483,95.287C452.483,84.326 443.499,75.342 432.538,75.342L409.808,75.342L409.808,142.723L411.515,142.723L411.515,115.142L430.741,115.142L446.643,142.723ZM450.596,95.287C450.596,105.349 442.421,113.345 432.538,113.435L411.515,113.435L411.515,77.049L432.538,77.049C442.51,77.138 450.596,85.314 450.596,95.287Z" style="fill:rgb(24,38,43);fill-rule:nonzero;"/>
        <path id="path7234" d="M515.221,75.342L548.911,109.033L515.221,142.723L521.113,142.723L554.803,109.033L521.113,75.342L515.221,75.342Z" style="fill:rgb(58,175,169);fill-rule:nonzero;"/>
        <path id="path7236" d="M470.418,75.342L504.108,109.033L470.418,142.723L515.221,142.723L548.911,109.033L515.221,75.342L470.418,75.342Z" style="fill:rgb(222,242,241);fill-rule:nonzero;"/>
        <path id="path7238" d="M27.082,75.343L27.082,142.723L30.028,142.723L30.028,75.343L27.082,75.343Z" style="fill:rgb(58,175,169);fill-rule:nonzero;"/>
        <path id="path7240" d="M30.027,75.342L30.027,109.033L52.429,109.033L52.429,75.342L30.027,75.342ZM30.028,109.033L30.028,142.723L52.43,142.723L52.43,109.033L30.028,109.033Z" style="fill:rgb(222,242,241);fill-rule:nonzero;"/>
    </g>
</svg>
