<?xml version="1.0" encoding="UTF-8" standalone="no"?>
<svg
   xmlns:dc="http://purl.org/dc/elements/1.1/"
   xmlns:cc="http://creativecommons.org/ns#"
   xmlns:rdf="http://www.w3.org/1999/02/22-rdf-syntax-ns#"
   xmlns:svg="http://www.w3.org/2000/svg"
   xmlns="http://www.w3.org/2000/svg"
   xmlns:sodipodi="http://sodipodi.sourceforge.net/DTD/sodipodi-0.dtd"
   xmlns:inkscape="http://www.inkscape.org/namespaces/inkscape"
   width="527.72101"
   height="68.880997"
   viewBox="0 0 527.72101 68.880997"
   version="1.1"
   xml:space="preserve"
   style="clip-rule:evenodd;fill-rule:evenodd;stroke-linejoin:round;stroke-miterlimit:2"
   id="svg14"
   sodipodi:docname="pale_logo.svg"
   inkscape:version="0.92.4 (5da689c313, 2019-01-14)"><metadata
   id="metadata20"><rdf:RDF><cc:Work
       rdf:about=""><dc:format>image/svg+xml</dc:format><dc:type
         rdf:resource="http://purl.org/dc/dcmitype/StillImage" /><dc:title></dc:title></cc:Work></rdf:RDF></metadata><defs
   id="defs18" /><sodipodi:namedview
   pagecolor="#ffffff"
   bordercolor="#666666"
   borderopacity="1"
   objecttolerance="10"
   gridtolerance="10"
   guidetolerance="10"
   inkscape:pageopacity="0"
   inkscape:pageshadow="2"
   inkscape:window-width="1920"
   inkscape:window-height="1017"
   id="namedview16"
   showgrid="false"
   inkscape:zoom="0.76067548"
   inkscape:cx="546.79451"
   inkscape:cy="-128.45569"
   inkscape:window-x="-8"
   inkscape:window-y="-8"
   inkscape:window-maximized="1"
   inkscape:current-layer="svg14"
   fit-margin-top="0"
   fit-margin-left="0"
   fit-margin-right="0"
   fit-margin-bottom="0" />
    <g
   transform="translate(-27.082,-74.592)"
   id="g12">
        <path
   id="path7220"
   d="m 102.034,106.517 v 11.859 h 13.027 c -2.785,4.043 -7.726,6.648 -13.027,6.648 -8.265,0 -15.902,-6.738 -15.902,-15.991 0,-9.254 7.457,-15.992 15.902,-15.992 4.582,0 8.355,1.796 11.23,4.492 l 12.488,-12.398 c -6.109,-6.02 -14.464,-9.793 -23.718,-9.793 -18.597,0 -33.601,15.093 -33.601,33.691 0,18.597 15.004,33.69 33.601,33.69 18.597,0 33.691,-15.093 33.691,-33.69 v -2.516 z"
   style="fill:#ffffff;fill-opacity:0.8;fill-rule:nonzero"
   inkscape:connector-curvature="0" />
        <path
   id="path7222"
   d="m 145.401,142.723 h 41.867 V 128.259 H 163.1 v -12.398 h 21.382 V 100.947 H 163.1 V 89.986 h 24.168 V 75.342 h -41.867 z"
   style="fill:#ffffff;fill-opacity:0.8;fill-rule:nonzero"
   inkscape:connector-curvature="0" />
        <path
   id="path7224"
   d="m 232.226,75.342 c -18.597,0 -33.6,15.183 -33.6,33.78 0,18.598 15.003,33.601 33.6,33.601 18.598,0 33.691,-15.003 33.691,-33.601 0,-18.597 -15.093,-33.78 -33.691,-33.78 z m 0,17.609 c 5.516,0 10.374,2.764 13.269,6.984 l -0.247,0.015 -1.102,-0.702 -0.872,0.544 -1.464,-0.133 -2.652,0.266 -0.798,0.509 -0.969,-0.63 -0.315,-0.351 -3.196,0.073 -2.288,1.622 0.594,0.509 0.665,-0.231 0.848,0.569 0.593,-0.581 -0.254,-0.484 0.544,-0.145 0.267,-0.569 0.738,0.085 -0.121,0.763 -0.06,0.423 -0.848,0.896 -1.065,0.073 c 0,0 -0.835,-0.351 -0.896,-0.363 -0.06,-0.012 -0.496,0.496 -0.496,0.496 l -1.513,0.775 0.011,0.762 -1.525,0.303 0.06,1.065 1.38,-0.011 1.09,-1.199 1.924,0.654 0.194,0.629 0.581,-0.338 -1.453,-1.138 0.618,-0.121 1.61,1.67 0.266,-0.884 0.593,0.957 1.78,-0.026 -0.375,1.041 -3.063,0.206 -1.986,-1.089 -2.542,0.218 -1.876,2.166 0.726,3.075 1.066,0.146 2.76,-0.376 0.508,0.303 0.133,3.765 1.477,3.789 1.671,-0.387 0.593,-0.921 1.077,-3.268 1.925,-3.172 c 0,0 -1.501,-0.823 -1.646,-0.944 -0.146,-0.121 -0.605,-1.9 -0.605,-1.9 l 2.021,1.513 1.792,-1.041 -1.405,-1.211 1.163,-0.375 2.978,0.92 0.581,1.247 0.932,1.743 0.811,-2.167 1.828,-0.739 0.025,0.003 c 0.015,0.266 0.02,0.532 0.02,0.801 0,8.804 -7.187,16.082 -16.081,16.082 -4.886,0 -9.274,-2.242 -12.212,-5.742 l 1.627,-2.089 1.38,-0.497 c 0,0 0.847,-2.021 0.883,-2.094 0.037,-0.073 0.194,-1.065 0.194,-1.065 l -2.615,-0.787 -0.581,-1.174 -1.779,-0.945 -1.974,-0.351 -0.825,0.356 c -0.059,-0.558 -0.09,-1.122 -0.09,-1.694 0,-0.066 0.002,-0.133 0.002,-0.199 l 0.272,0.048 0.133,-0.229 -0.397,-0.171 c 0.038,-1.12 0.189,-2.211 0.444,-3.261 l 0.062,-0.116 0.944,-0.823 1.223,-0.302 -0.097,-0.581 1.671,0.06 -0.158,-0.666 -1.634,-1.38 -0.099,-0.796 c 0.398,-0.65 0.842,-1.271 1.325,-1.855 l 1.038,2.203 1.138,0.146 0.908,-0.896 2.058,-0.557 1.174,-0.969 0.86,-1.803 -1.95,-0.702 -1.93,-0.437 c 2.568,-1.764 5.67,-2.796 9.005,-2.796 z m -5.754,7.143 0.448,0.605 0.883,-0.06 -0.025,-0.497 z m 3.656,1.319 c 0,0 -0.63,0.109 -0.581,0.194 0.048,0.084 0.096,0.351 0.096,0.351 l 0.64,0.363 -0.422,0.629 0.109,0.158 1.09,-0.243 z m -0.763,0.775 -0.533,0.23 0.073,0.472 0.363,0.145 0.366,-0.4 z m -12.336,6.76 0.061,0.261 0.799,-0.036 0.025,-0.218 z"
   style="fill:#ffffff;fill-opacity:0.8;fill-rule:nonzero"
   inkscape:connector-curvature="0" />
        <path
   id="path7226"
   d="m 323.515,75.342 h -2.516 l -38.632,38.362 V 75.342 h -1.707 v 67.381 h 1.707 V 116.4 l 8.804,-8.805 35.218,35.128 h 2.696 l -36.476,-36.565 z"
   style="fill:#424242;fill-opacity:1;fill-rule:nonzero;stroke:#424242;stroke-width:1.5;stroke-linecap:square;stroke-linejoin:miter;stroke-miterlimit:2;stroke-dasharray:none;stroke-dashoffset:0;stroke-opacity:1;paint-order:fill markers stroke"
   inkscape:connector-curvature="0" />
        <path
   id="path7228"
   d="m 340.698,116.13 c 0,14.734 11.859,26.593 26.594,26.593 14.734,0 26.683,-11.859 26.683,-26.593 V 75.342 h -1.797 v 40.878 c -0.09,13.656 -11.32,24.617 -24.886,24.617 -13.656,0 -24.797,-11.051 -24.797,-24.707 V 75.342 h -1.797 z"
   style="fill:#424242;fill-opacity:1;fill-rule:nonzero;stroke:#424242;stroke-width:1.5;stroke-linecap:square;stroke-linejoin:miter;stroke-miterlimit:2;stroke-dasharray:none;stroke-dashoffset:0;stroke-opacity:1;paint-order:fill markers stroke"
   inkscape:connector-curvature="0" />
        <path
   id="path7230"
   d="m 446.643,142.723 h 2.066 l -15.902,-27.581 c 10.871,-0.18 19.676,-8.984 19.676,-19.855 0,-10.961 -8.984,-19.945 -19.945,-19.945 h -22.73 v 67.381 h 1.707 v -27.581 h 19.226 z m 3.953,-47.436 c 0,10.062 -8.175,18.058 -18.058,18.148 H 411.515 V 77.049 h 21.023 c 9.972,0.089 18.058,8.265 18.058,18.238 z"
   style="fill:#424242;fill-opacity:1;fill-rule:nonzero;stroke:#424242;stroke-width:1.5;stroke-linecap:square;stroke-linejoin:miter;stroke-miterlimit:2;stroke-dasharray:none;stroke-dashoffset:0;stroke-opacity:1;paint-order:fill markers stroke"
   inkscape:connector-curvature="0" />
        <path
   id="path7234"
   d="m 515.221,75.342 33.69,33.691 -33.69,33.69 h 5.892 l 33.69,-33.69 -33.69,-33.691 z"
   style="fill:#424242;fill-opacity:1;fill-rule:nonzero"
   inkscape:connector-curvature="0" />
        <path
   id="path7236"
   d="m 470.418,75.342 33.69,33.691 -33.69,33.69 h 44.803 l 33.69,-33.69 -33.69,-33.691 z"
   style="fill:#ffffff;fill-opacity:0.8;fill-rule:nonzero"
   inkscape:connector-curvature="0" />
        <path
   id="path7238"
   d="m 27.082,75.343 v 67.38 h 2.946 v -67.38 z"
   style="fill:#424242;fill-opacity:1;fill-rule:nonzero"
   inkscape:connector-curvature="0" />
        <path
   id="path7240"
   d="m 30.027,75.342 v 33.691 H 52.429 V 75.342 Z m 10e-4,33.691 v 33.69 H 52.43 v -33.69 z"
   style="fill:#ffffff;fill-opacity:0.8;fill-rule:nonzero"
   inkscape:connector-curvature="0" />
    <text
   xml:space="preserve"
   style="font-style:normal;font-variant:normal;font-weight:normal;font-stretch:normal;font-size:64px;line-height:1.25;font-family:'Open Sans';-inkscape-font-specification:'Open Sans, Normal';font-variant-ligatures:normal;font-variant-caps:normal;font-variant-numeric:normal;text-align:start;letter-spacing:0px;word-spacing:0px;writing-mode:lr-tb;text-anchor:start;fill:#000000;fill-opacity:1;stroke:none"
   x="356.15231"
   y="35.278313"
   id="text4545"><tspan
     sodipodi:role="line"
     id="tspan4543"
     x="356.15231"
     y="91.985451" /></text>
<text
   xml:space="preserve"
   style="font-style:normal;font-variant:normal;font-weight:normal;font-stretch:normal;font-size:64px;line-height:1.25;font-family:'Open Sans';-inkscape-font-specification:'Open Sans, Normal';font-variant-ligatures:normal;font-variant-caps:normal;font-variant-numeric:normal;text-align:start;letter-spacing:0px;word-spacing:0px;writing-mode:lr-tb;text-anchor:start;fill:#000000;fill-opacity:1;stroke:none"
   x="368.93402"
   y="20.869864"
   id="text4549"><tspan
     sodipodi:role="line"
     id="tspan4547"
     x="368.93402"
     y="77.577003" /></text>
</g>
<g
   id="g5298"
   transform="translate(-27.082,-74.592)">
        <path
   inkscape:connector-curvature="0"
   style="fill:#ffffff;fill-opacity:0.8;fill-rule:nonzero"
   d="m 102.034,106.517 v 11.859 h 13.027 c -2.785,4.043 -7.726,6.648 -13.027,6.648 -8.265,0 -15.902,-6.738 -15.902,-15.991 0,-9.254 7.457,-15.992 15.902,-15.992 4.582,0 8.355,1.796 11.23,4.492 l 12.488,-12.398 c -6.109,-6.02 -14.464,-9.793 -23.718,-9.793 -18.597,0 -33.601,15.093 -33.601,33.691 0,18.597 15.004,33.69 33.601,33.69 18.597,0 33.691,-15.093 33.691,-33.69 v -2.516 z"
   id="path5270" />
        <path
   inkscape:connector-curvature="0"
   style="fill:#ffffff;fill-opacity:0.8;fill-rule:nonzero"
   d="m 145.401,142.723 h 41.867 V 128.259 H 163.1 v -12.398 h 21.382 V 100.947 H 163.1 V 89.986 h 24.168 V 75.342 h -41.867 z"
   id="path5272" />
        <path
   inkscape:connector-curvature="0"
   style="fill:#ffffff;fill-opacity:0.8;fill-rule:nonzero"
   d="m 232.226,75.342 c -18.597,0 -33.6,15.183 -33.6,33.78 0,18.598 15.003,33.601 33.6,33.601 18.598,0 33.691,-15.003 33.691,-33.601 0,-18.597 -15.093,-33.78 -33.691,-33.78 z m 0,17.609 c 5.516,0 10.374,2.764 13.269,6.984 l -0.247,0.015 -1.102,-0.702 -0.872,0.544 -1.464,-0.133 -2.652,0.266 -0.798,0.509 -0.969,-0.63 -0.315,-0.351 -3.196,0.073 -2.288,1.622 0.594,0.509 0.665,-0.231 0.848,0.569 0.593,-0.581 -0.254,-0.484 0.544,-0.145 0.267,-0.569 0.738,0.085 -0.121,0.763 -0.06,0.423 -0.848,0.896 -1.065,0.073 c 0,0 -0.835,-0.351 -0.896,-0.363 -0.06,-0.012 -0.496,0.496 -0.496,0.496 l -1.513,0.775 0.011,0.762 -1.525,0.303 0.06,1.065 1.38,-0.011 1.09,-1.199 1.924,0.654 0.194,0.629 0.581,-0.338 -1.453,-1.138 0.618,-0.121 1.61,1.67 0.266,-0.884 0.593,0.957 1.78,-0.026 -0.375,1.041 -3.063,0.206 -1.986,-1.089 -2.542,0.218 -1.876,2.166 0.726,3.075 1.066,0.146 2.76,-0.376 0.508,0.303 0.133,3.765 1.477,3.789 1.671,-0.387 0.593,-0.921 1.077,-3.268 1.925,-3.172 c 0,0 -1.501,-0.823 -1.646,-0.944 -0.146,-0.121 -0.605,-1.9 -0.605,-1.9 l 2.021,1.513 1.792,-1.041 -1.405,-1.211 1.163,-0.375 2.978,0.92 0.581,1.247 0.932,1.743 0.811,-2.167 1.828,-0.739 0.025,0.003 c 0.015,0.266 0.02,0.532 0.02,0.801 0,8.804 -7.187,16.082 -16.081,16.082 -4.886,0 -9.274,-2.242 -12.212,-5.742 l 1.627,-2.089 1.38,-0.497 c 0,0 0.847,-2.021 0.883,-2.094 0.037,-0.073 0.194,-1.065 0.194,-1.065 l -2.615,-0.787 -0.581,-1.174 -1.779,-0.945 -1.974,-0.351 -0.825,0.356 c -0.059,-0.558 -0.09,-1.122 -0.09,-1.694 0,-0.066 0.002,-0.133 0.002,-0.199 l 0.272,0.048 0.133,-0.229 -0.397,-0.171 c 0.038,-1.12 0.189,-2.211 0.444,-3.261 l 0.062,-0.116 0.944,-0.823 1.223,-0.302 -0.097,-0.581 1.671,0.06 -0.158,-0.666 -1.634,-1.38 -0.099,-0.796 c 0.398,-0.65 0.842,-1.271 1.325,-1.855 l 1.038,2.203 1.138,0.146 0.908,-0.896 2.058,-0.557 1.174,-0.969 0.86,-1.803 -1.95,-0.702 -1.93,-0.437 c 2.568,-1.764 5.67,-2.796 9.005,-2.796 z m -5.754,7.143 0.448,0.605 0.883,-0.06 -0.025,-0.497 z m 3.656,1.319 c 0,0 -0.63,0.109 -0.581,0.194 0.048,0.084 0.096,0.351 0.096,0.351 l 0.64,0.363 -0.422,0.629 0.109,0.158 1.09,-0.243 z m -0.763,0.775 -0.533,0.23 0.073,0.472 0.363,0.145 0.366,-0.4 z m -12.336,6.76 0.061,0.261 0.799,-0.036 0.025,-0.218 z"
   id="path5274" />
        <path
   inkscape:connector-curvature="0"
   style="fill:#424242;fill-opacity:1;fill-rule:nonzero;stroke:#424242;stroke-width:1.5;stroke-linecap:square;stroke-linejoin:miter;stroke-miterlimit:2;stroke-dasharray:none;stroke-dashoffset:0;stroke-opacity:1;paint-order:fill markers stroke"
   d="m 323.515,75.342 h -2.516 l -38.632,38.362 V 75.342 h -1.707 v 67.381 h 1.707 V 116.4 l 8.804,-8.805 35.218,35.128 h 2.696 l -36.476,-36.565 z"
   id="path5276" />
        <path
   inkscape:connector-curvature="0"
   style="fill:#424242;fill-opacity:1;fill-rule:nonzero;stroke:#424242;stroke-width:1.5;stroke-linecap:square;stroke-linejoin:miter;stroke-miterlimit:2;stroke-dasharray:none;stroke-dashoffset:0;stroke-opacity:1;paint-order:fill markers stroke"
   d="m 340.698,116.13 c 0,14.734 11.859,26.593 26.594,26.593 14.734,0 26.683,-11.859 26.683,-26.593 V 75.342 h -1.797 v 40.878 c -0.09,13.656 -11.32,24.617 -24.886,24.617 -13.656,0 -24.797,-11.051 -24.797,-24.707 V 75.342 h -1.797 z"
   id="path5278" />
        <path
   inkscape:connector-curvature="0"
   style="fill:#424242;fill-opacity:1;fill-rule:nonzero;stroke:#424242;stroke-width:1.5;stroke-linecap:square;stroke-linejoin:miter;stroke-miterlimit:2;stroke-dasharray:none;stroke-dashoffset:0;stroke-opacity:1;paint-order:fill markers stroke"
   d="m 446.643,142.723 h 2.066 l -15.902,-27.581 c 10.871,-0.18 19.676,-8.984 19.676,-19.855 0,-10.961 -8.984,-19.945 -19.945,-19.945 h -22.73 v 67.381 h 1.707 v -27.581 h 19.226 z m 3.953,-47.436 c 0,10.062 -8.175,18.058 -18.058,18.148 H 411.515 V 77.049 h 21.023 c 9.972,0.089 18.058,8.265 18.058,18.238 z"
   id="path5280" />
        <path
   inkscape:connector-curvature="0"
   style="fill:#424242;fill-opacity:1;fill-rule:nonzero"
   d="m 515.221,75.342 33.69,33.691 -33.69,33.69 h 5.892 l 33.69,-33.69 -33.69,-33.691 z"
   id="path5282" />
        <path
   inkscape:connector-curvature="0"
   style="fill:#ffffff;fill-opacity:0.8;fill-rule:nonzero"
   d="m 470.418,75.342 33.69,33.691 -33.69,33.69 h 44.803 l 33.69,-33.69 -33.69,-33.691 z"
   id="path5284" />
        <path
   inkscape:connector-curvature="0"
   style="fill:#424242;fill-opacity:1;fill-rule:nonzero"
   d="m 27.082,75.343 v 67.38 h 2.946 v -67.38 z"
   id="path5286" />
        <path
   inkscape:connector-curvature="0"
   style="fill:#ffffff;fill-opacity:0.8;fill-rule:nonzero"
   d="m 30.027,75.342 v 33.691 H 52.429 V 75.342 Z m 10e-4,33.691 v 33.69 H 52.43 v -33.69 z"
   id="path5288" />
    <text
   id="text5292"
   y="35.278313"
   x="356.15231"
   style="font-style:normal;font-variant:normal;font-weight:normal;font-stretch:normal;font-size:64px;line-height:1.25;font-family:'Open Sans';-inkscape-font-specification:'Open Sans, Normal';font-variant-ligatures:normal;font-variant-caps:normal;font-variant-numeric:normal;text-align:start;letter-spacing:0px;word-spacing:0px;writing-mode:lr-tb;text-anchor:start;fill:#000000;fill-opacity:1;stroke:none"
   xml:space="preserve"><tspan
     y="91.985451"
     x="356.15231"
     id="tspan5290"
     sodipodi:role="line" /></text>
<text
   id="text5296"
   y="20.869864"
   x="368.93402"
   style="font-style:normal;font-variant:normal;font-weight:normal;font-stretch:normal;font-size:64px;line-height:1.25;font-family:'Open Sans';-inkscape-font-specification:'Open Sans, Normal';font-variant-ligatures:normal;font-variant-caps:normal;font-variant-numeric:normal;text-align:start;letter-spacing:0px;word-spacing:0px;writing-mode:lr-tb;text-anchor:start;fill:#000000;fill-opacity:1;stroke:none"
   xml:space="preserve"><tspan
     y="77.577003"
     x="368.93402"
     id="tspan5294"
     sodipodi:role="line" /></text>
</g></svg>